<svg width="64" height="64" viewBox="0 0 64 64" fill="none" xmlns="http://www.w3.org/2000/svg">
  <!-- Monitor background -->
  <rect x="8" y="12" width="48" height="36" rx="4" fill="#8B5CF6" stroke="#7C3AED" stroke-width="2"/>
  
  <!-- Screen -->
  <rect x="12" y="16" width="40" height="28" rx="2" fill="#F8FAFC"/>
  
  <!-- Left panel with list items -->
  <rect x="16" y="20" width="16" height="4" rx="2" fill="#E2E8F0"/>
  <rect x="16" y="26" width="16" height="4" rx="2" fill="#E2E8F0"/>
  <rect x="16" y="32" width="16" height="4" rx="2" fill="#E2E8F0"/>
  
  <!-- Bullet points -->
  <circle cx="18" cy="22" r="2" fill="#EF4444"/>
  <circle cx="18" cy="28" r="2" fill="#3B82F6"/>
  <circle cx="18" cy="34" r="2" fill="#8B5CF6"/>
  
  <!-- Selected item -->
  <rect x="16" y="38" width="12" height="3" rx="1.5" fill="#F59E0B"/>
  
  <!-- Right panel with pie chart -->
  <rect x="36" y="20" width="12" height="20" rx="2" fill="#F1F5F9"/>
  
  <!-- Pie chart -->
  <circle cx="42" cy="26" r="5" fill="#F97316"/>
  <path d="M42 21 A5 5 0 0 1 47 26 A5 5 0 0 1 42 31 A5 5 0 0 1 37 26 A5 5 0 0 1 42 21 Z" fill="#10B981"/>
  
  <!-- Legend item -->
  <rect x="38" y="32" width="8" height="2" rx="1" fill="#10B981"/>
  
  <!-- Monitor stand -->
  <rect x="28" y="48" width="8" height="4" fill="#8B5CF6"/>
  <rect x="24" y="52" width="16" height="2" fill="#8B5CF6"/>
</svg> 